<?xml version="1.0" encoding="UTF-8"?>
<svg version="1.1" xmlns="http://www.w3.org/2000/svg" width="300" height="300">
<path d="M0 0 C1.37717949 -0.01073296 1.37717949 -0.01073296 2.78218079 -0.02168274 C3.78740784 -0.02437164 4.79263489 -0.02706055 5.82832336 -0.02983093 C6.88880386 -0.03640213 7.94928436 -0.04297333 9.04190063 -0.04974365 C12.55835539 -0.06948564 16.07476741 -0.08114184 19.59126282 -0.09111023 C20.79210825 -0.09518576 21.99295368 -0.09926128 23.23018837 -0.10346031 C29.58711704 -0.12432574 35.9440241 -0.13862496 42.30097961 -0.147995 C48.86373034 -0.15905518 55.42614161 -0.19344973 61.98877239 -0.23316669 C67.03746161 -0.25932667 72.08606991 -0.26768636 77.13482094 -0.27127647 C79.55368655 -0.27614466 81.9725485 -0.28776515 84.39134789 -0.30631447 C87.78076851 -0.33068976 91.16931047 -0.32974322 94.55879211 -0.32279968 C96.05145096 -0.34201477 96.05145096 -0.34201477 97.57426453 -0.36161804 C103.71932366 -0.31584535 108.39843002 0.61241885 113.51704407 4.14717102 C117.5007928 8.34059074 119.760741 12.05957193 119.7844696 17.87773132 C119.79726456 19.29917198 119.79726456 19.29917198 119.81031799 20.74932861 C119.80895844 22.29856773 119.80895844 22.29856773 119.80757141 23.87910461 C119.81428864 24.97220444 119.82100586 26.06530426 119.82792664 27.19152832 C119.84694418 30.80960113 119.85083273 34.42748882 119.85298157 38.04560852 C119.85940675 40.55900652 119.8661349 43.07240376 119.87315369 45.58580017 C119.88513576 50.85659487 119.88891914 56.12734254 119.88764954 61.39814758 C119.88644838 67.48307469 119.90754659 73.56764696 119.93913686 79.6524843 C119.96847943 85.51404583 119.9756246 91.3754673 119.97443008 97.23709488 C119.97679105 99.72738214 119.98564231 102.217672 120.00109482 104.70791245 C120.02068485 108.19105747 120.0149434 111.6732887 120.00288391 115.15644836 C120.01412292 116.18522598 120.02536194 117.2140036 120.03694153 118.2739563 C119.97545509 125.26085997 118.86725586 128.77291465 113.88423157 133.79170227 C109.94519874 136.87487195 107.94917024 138.26883532 102.98902893 138.29434204 C101.55909103 138.305075 101.55909103 138.305075 100.1002655 138.31602478 C98.52621445 138.32005814 98.52621445 138.32005814 96.92036438 138.32417297 C95.81780304 138.33074417 94.7152417 138.33731537 93.57926941 138.34408569 C89.917902 138.3638523 86.25657567 138.37548884 82.59516907 138.38545227 C81.34678001 138.3895278 80.09839096 138.39360332 78.81217194 138.39780235 C72.88654804 138.41652327 66.96093725 138.43108558 61.03529096 138.43941432 C54.19924354 138.44918158 47.36352037 138.47548642 40.52758718 138.51591522 C34.60412451 138.54974273 28.68074107 138.56156178 22.75717926 138.56561852 C20.23897351 138.57049516 17.72077148 138.58213959 15.20262909 138.60065651 C11.67858987 138.62495911 8.15539895 138.62409863 4.63130188 138.61714172 C3.59003143 138.62995178 2.54876099 138.64276184 1.47593689 138.65596008 C-4.51425668 138.61283749 -7.91291171 138.1209998 -12.48295593 134.14717102 C-16.35477363 129.84515135 -18.72876081 126.34704491 -18.74365234 120.49253845 C-18.75073715 119.56173965 -18.75782196 118.63094086 -18.76512146 117.67193604 C-18.76264404 116.65781143 -18.76016663 115.64368683 -18.75761414 114.59883118 C-18.76272507 113.52523849 -18.767836 112.45164581 -18.77310181 111.34552002 C-18.78701517 107.79236799 -18.78603959 104.23940957 -18.78373718 100.68623352 C-18.78762335 98.21767606 -18.79195785 95.74911927 -18.79672241 93.28056335 C-18.80418853 88.10391575 -18.80389062 82.92733633 -18.79862976 77.75068665 C-18.79283685 71.11718897 -18.80976023 64.48397066 -18.83297443 57.85051918 C-18.84770774 52.75129057 -18.84858397 47.65212928 -18.84546471 42.55288315 C-18.84597819 40.10726239 -18.85122099 37.66163789 -18.86127663 35.21603775 C-18.87361453 31.79527401 -18.86686454 28.37505497 -18.85527039 24.95429993 C-18.86673599 23.43918571 -18.86673599 23.43918571 -18.87843323 21.89346313 C-18.83032891 15.47134679 -18.08480995 10.94311496 -13.54545593 6.06513977 C-12.86483093 5.49408508 -12.18420593 4.9230304 -11.48295593 4.33467102 C-10.80233093 3.75072571 -10.12170593 3.1667804 -9.42045593 2.56513977 C-6.33001755 0.30338748 -3.71086556 0.01987203 0 0 Z M-5.48295593 14.14717102 C-7.2467903 16.99015392 -7.73446491 19.14609459 -7.74365234 22.46685791 C-7.75073715 23.32337448 -7.75782196 24.17989105 -7.76512146 25.06236267 C-7.76264404 25.99390167 -7.76016663 26.92544067 -7.75761414 27.88520813 C-7.76272507 28.87262497 -7.767836 29.86004181 -7.77310181 30.87738037 C-7.78700801 34.1431534 -7.78604028 37.40871564 -7.78373718 40.67451477 C-7.78762347 42.9436857 -7.791958 45.21285589 -7.79672241 47.48202515 C-7.80418679 52.23916481 -7.80389169 56.99623027 -7.79862976 61.75337219 C-7.79283408 67.85113844 -7.80976767 73.94860106 -7.83297443 80.0463171 C-7.84770208 84.73288755 -7.8485848 89.41938471 -7.84546471 94.1059742 C-7.84597838 96.3542548 -7.85122468 98.60253946 -7.86127663 100.85079765 C-7.87360504 103.99397931 -7.8668707 107.13656731 -7.85527039 110.27973938 C-7.86291412 111.20925415 -7.87055786 112.13876892 -7.87843323 113.09645081 C-7.83909071 117.91637581 -7.68998296 121.27713826 -4.48295593 125.14717102 C-1.376774 127.21795898 -0.69243721 127.39991152 2.83036804 127.42132568 C4.1509446 127.43628838 4.1509446 127.43628838 5.49819946 127.45155334 C6.9429792 127.45255035 6.9429792 127.45255035 8.41694641 127.4535675 C9.43347794 127.46189102 10.45000946 127.47021454 11.49734497 127.47879028 C14.86592918 127.50293397 18.23431994 127.51166766 21.60298157 127.51826477 C23.94084228 127.52722752 26.27870239 127.5363493 28.61656189 127.54562378 C33.52090348 127.56212805 38.42517668 127.56981656 43.32954407 127.57270813 C49.61694496 127.5780944 55.90370412 127.61577919 62.19092369 127.66145229 C67.02076063 127.69117945 71.85044221 127.69843075 76.6803627 127.69943428 C78.99844427 127.70364492 81.31652595 127.7161128 83.63451767 127.73695183 C86.87627747 127.76377595 90.11653894 127.75906675 93.35835266 127.74653625 C94.31749069 127.76137054 95.27662872 127.77620483 96.26483154 127.79148865 C100.53624536 127.74441932 102.91703442 127.51633378 106.61251831 125.24264526 C109.33901092 120.81120735 109.21068518 117.133515 109.14814758 112.0202179 C109.15530289 111.00339432 109.16245819 109.98657074 109.16983032 108.93893433 C109.18672657 105.58080497 109.16730815 102.22400879 109.14595032 98.86592102 C109.14677892 96.53091827 109.14923799 94.19591557 109.15325928 91.86091614 C109.15611793 86.96836276 109.14140871 82.076267 109.1139679 77.18379211 C109.07988569 70.91215736 109.08590307 64.64134098 109.10463047 58.36966705 C109.11519853 53.54836709 109.10626426 48.72725759 109.09124565 43.90597534 C109.086062 41.59351161 109.08654784 39.28102801 109.0927906 36.96856689 C109.09824022 33.73665084 109.0778743 30.50590669 109.05049133 27.27412415 C109.05701721 26.3181282 109.06354309 25.36213226 109.07026672 24.37716675 C109.00935968 20.14994832 108.88714467 17.76280911 106.67120361 14.07673645 C103.66584417 11.38471779 101.25019594 11.02248011 97.36230469 11.00672913 C96.0943808 10.99816391 96.0943808 10.99816391 94.80084229 10.98942566 C93.87662979 10.9883078 92.9524173 10.98718994 92.00019836 10.98603821 C91.02428741 10.9810733 90.04837646 10.9761084 89.04289246 10.97099304 C85.80900878 10.95636819 82.57517416 10.94956879 79.34126282 10.94404602 C77.09547931 10.93829475 74.84969583 10.93253702 72.60391235 10.92677307 C67.8920926 10.91626211 63.18028991 10.91042009 58.46846008 10.90693665 C52.43243797 10.90145231 46.39664148 10.87742579 40.36069012 10.84896469 C35.7204116 10.83033594 31.0801874 10.82513257 26.43987465 10.82360077 C24.21474283 10.82057417 21.98961197 10.81254541 19.76451683 10.79941559 C16.65019469 10.78235078 13.53642336 10.78423661 10.42207336 10.79072571 C9.50393356 10.78151093 8.58579376 10.77229614 7.63983154 10.76280212 C2.55348163 10.79598154 -1.15553569 11.16362281 -5.48295593 14.14717102 Z " fill="#05487A" transform="translate(180.4829559326172,161.8528289794922)"/>
<path d="M0 0 C0.91956482 -0.0071553 1.83912964 -0.01431061 2.78656006 -0.02168274 C3.79335815 -0.02437164 4.80015625 -0.02706055 5.83746338 -0.02983093 C7.43059357 -0.03968773 7.43059357 -0.03968773 9.0559082 -0.04974365 C12.57716948 -0.06948394 16.09838809 -0.08114082 19.61968994 -0.09111023 C20.82178352 -0.09518576 22.02387711 -0.09926128 23.26239777 -0.10346031 C29.62465748 -0.12432398 35.9868956 -0.13862455 42.34918213 -0.147995 C48.920999 -0.15906105 55.49247744 -0.19346285 62.06417465 -0.23316669 C67.11711253 -0.25930978 72.16996949 -0.2676848 77.22296906 -0.27127647 C79.64545223 -0.27614822 82.06793165 -0.28777883 84.49034882 -0.30631447 C87.88236832 -0.33065621 91.27350831 -0.32974949 94.66558838 -0.32279968 C95.66428955 -0.33560974 96.66299072 -0.3484198 97.69195557 -0.36161804 C104.7953771 -0.30862865 109.14811717 1.03278464 114.47125244 5.96357727 C115.17121338 6.82789368 115.17121338 6.82789368 115.88531494 7.70967102 C116.608479 8.57785461 116.608479 8.57785461 117.34625244 9.46357727 C119.42285206 12.46698142 119.6397573 15.13306686 119.66421509 18.66809082 C119.67281555 19.59462463 119.68141602 20.52115845 119.6902771 21.47576904 C119.69666702 22.99763573 119.69666702 22.99763573 119.70318604 24.55024719 C119.71545227 26.1555983 119.71545227 26.1555983 119.72796631 27.79338074 C119.75281907 31.34229471 119.76933673 34.89116867 119.78375244 38.44013977 C119.78907612 39.65201777 119.7943998 40.86389576 119.7998848 42.11249733 C119.82661673 48.52777601 119.84599094 54.94303523 119.8604126 61.35835266 C119.87705421 67.98171322 119.92182867 74.60457561 119.97278404 81.22774792 C120.00645572 86.32275966 120.01799005 91.41765319 120.02363968 96.51276588 C120.030353 98.95397559 120.04557698 101.3951775 120.06953049 103.83627892 C120.1011793 107.25697169 120.10121834 110.67632119 120.09381104 114.09712219 C120.11021637 115.10157883 120.1266217 116.10603546 120.14352417 117.14093018 C120.08536321 123.71762534 118.75847946 128.0597622 114.51031494 133.14717102 C110.59359676 136.69954332 108.2244805 138.26738498 102.9822998 138.29434204 C101.55236191 138.305075 101.55236191 138.305075 100.09353638 138.31602478 C98.51948532 138.32005814 98.51948532 138.32005814 96.91363525 138.32417297 C95.81107391 138.33074417 94.70851257 138.33731537 93.57254028 138.34408569 C89.91117287 138.3638523 86.24984654 138.37548884 82.58843994 138.38545227 C81.34005089 138.3895278 80.09166183 138.39360332 78.80544281 138.39780235 C72.87981892 138.41652327 66.95420813 138.43108558 61.02856183 138.43941432 C54.19251441 138.44918158 47.35679124 138.47548642 40.52085805 138.51591522 C34.59739539 138.54974273 28.67401194 138.56156178 22.75045013 138.56561852 C20.23224438 138.57049516 17.71404236 138.58213959 15.19589996 138.60065651 C11.67186074 138.62495911 8.14866982 138.62409863 4.62457275 138.61714172 C3.58330231 138.62995178 2.54203186 138.64276184 1.46920776 138.65596008 C-5.56358187 138.60533199 -9.08350283 137.52908116 -14.13421631 132.51435852 C-17.19698939 128.60138422 -18.61014118 126.59848509 -18.64358521 121.670578 C-18.65218567 120.72859055 -18.66078613 119.78660309 -18.66964722 118.81607056 C-18.67390717 117.77919601 -18.67816711 116.74232147 -18.68255615 115.67402649 C-18.69073364 114.5844313 -18.69891113 113.49483612 -18.70733643 112.3722229 C-18.73222323 108.75294041 -18.74871665 105.13369729 -18.76312256 101.51435852 C-18.76844624 100.27949833 -18.77376991 99.04463814 -18.77925491 97.77235794 C-18.80324279 91.90866972 -18.82248028 86.04499775 -18.83527696 80.18127429 C-18.85032012 73.42271044 -18.88536899 66.66463131 -18.93727815 59.90625274 C-18.98074781 54.04578949 -18.99663276 48.18548807 -19.0030098 42.32487869 C-19.00972459 39.83622125 -19.02495241 37.3475715 -19.0489006 34.85902023 C-19.08054482 31.37117053 -19.08058892 27.88463852 -19.07318115 24.39668274 C-19.08958649 23.37195358 -19.10599182 22.34722443 -19.12289429 21.29144287 C-19.06580762 14.71082226 -17.85296184 10.18827612 -13.48968506 5.14717102 C-9.05684499 1.68955577 -5.59653615 0.02992127 0 0 Z M-5.48968506 14.14717102 C-7.56047301 17.25335295 -7.74242556 17.93768975 -7.76383972 21.460495 C-7.77381485 22.34087936 -7.78378998 23.22126373 -7.79406738 24.12832642 C-7.79473206 25.09151291 -7.79539673 26.0546994 -7.79608154 27.04707336 C-7.80440506 28.06360489 -7.81272858 29.08013641 -7.82130432 30.12747192 C-7.84544801 33.49605614 -7.85418169 36.8644469 -7.86077881 40.23310852 C-7.86974156 42.57096923 -7.87886333 44.90882934 -7.88813782 47.24668884 C-7.90464209 52.15103043 -7.9123306 57.05530364 -7.91522217 61.95967102 C-7.92060844 68.24707191 -7.95829323 74.53383108 -8.00396633 80.82105064 C-8.03369348 85.65088758 -8.04094478 90.48056917 -8.04194832 95.31048965 C-8.04615896 97.62857122 -8.05862684 99.9466529 -8.07946587 102.26464462 C-8.10628999 105.50640443 -8.10158079 108.74666589 -8.08905029 111.98847961 C-8.10388458 112.94761765 -8.11871887 113.90675568 -8.13400269 114.8949585 C-8.08693336 119.16637231 -7.85884782 121.54716137 -5.5851593 125.24264526 C-1.15372139 127.96913787 2.52397096 127.84081214 7.63726807 127.77827454 C8.65409164 127.78542984 9.67091522 127.79258514 10.71855164 127.79995728 C14.07668099 127.81685352 17.43347718 127.79743511 20.79156494 127.77607727 C23.12656769 127.77690588 25.46157039 127.77936494 27.79656982 127.78338623 C32.6891232 127.78624489 37.58121896 127.77153566 42.47369385 127.74409485 C48.74532861 127.71001264 55.01614498 127.71603002 61.28781891 127.73475742 C66.10911887 127.74532548 70.93022837 127.73639121 75.75151062 127.7213726 C78.06397435 127.71618895 80.37645795 127.71667479 82.68891907 127.72291756 C85.92083512 127.72836717 89.15157928 127.70800126 92.38336182 127.68061829 C93.33935776 127.68714417 94.2953537 127.69367004 95.28031921 127.70039368 C99.50753765 127.63948664 101.89467685 127.51727163 105.58074951 125.30133057 C108.28576261 122.28146418 108.63511816 119.85350602 108.65075684 115.94773865 C108.65646698 115.09259674 108.66217712 114.23745483 108.6680603 113.35639954 C108.66917816 112.42126526 108.67029602 111.48613098 108.67144775 110.5226593 C108.67641266 109.53538849 108.68137756 108.54811768 108.68649292 107.53092957 C108.70111697 104.25977384 108.70791665 100.98866659 108.71343994 97.71748352 C108.71919079 95.44688414 108.72494853 93.17628477 108.73071289 90.90568542 C108.74122329 86.14259108 108.74706584 81.37951362 108.75054932 76.6164093 C108.75603688 70.51078771 108.7800705 64.40538881 108.80852127 58.29983711 C108.82713638 53.60898687 108.83235263 48.91819042 108.83388519 44.22730637 C108.83691433 41.9762284 108.8449516 39.72515143 108.85807037 37.47410965 C108.87510846 34.32605744 108.87325602 31.17855131 108.86676025 28.0304718 C108.87597504 27.09938599 108.88518982 26.16830017 108.89468384 25.20899963 C108.86385094 20.44339357 108.83430317 16.87420599 105.51031494 13.14717102 C101.03424154 10.35633176 95.85563294 10.85874456 90.75054932 10.87251282 C89.77274002 10.86740189 88.79493073 10.86229095 87.78749084 10.85702515 C84.55961973 10.84314006 81.33196235 10.84408491 78.10406494 10.84638977 C75.8587435 10.84250269 73.61342278 10.83816799 71.36810303 10.83340454 C66.66401789 10.82594498 61.96000782 10.82623205 57.25592041 10.83149719 C51.22656286 10.83729612 45.19751208 10.82034912 39.16820526 10.79715252 C34.53224897 10.7824257 29.89636677 10.78154198 25.26039124 10.78466225 C23.03723034 10.78414866 20.81406534 10.77890397 18.59092712 10.76885033 C15.48377487 10.75652178 12.37722312 10.76325601 9.27008057 10.77485657 C8.35148758 10.76721283 7.43289459 10.75956909 6.48646545 10.75169373 C1.68845169 10.79131194 -1.63357968 10.96235666 -5.48968506 14.14717102 Z " fill="#05487A" transform="translate(18.48968505859375,161.8528289794922)"/>
<path d="M0 0 C1.10299942 -0.00686325 2.20599884 -0.0137265 3.34242249 -0.02079773 C6.98760866 -0.03909536 10.63236566 -0.03522383 14.27758789 -0.02954102 C16.81197754 -0.03410136 19.34636596 -0.03940649 21.88075256 -0.04542542 C27.19269413 -0.05436237 32.50447937 -0.0521605 37.81640625 -0.04199219 C43.94851814 -0.03051292 50.08019258 -0.04458522 56.21224684 -0.07138866 C62.12133311 -0.09624631 68.03028383 -0.09871873 73.93942451 -0.0922718 C76.44924205 -0.09211839 78.95906792 -0.0981792 81.4688549 -0.11056328 C84.97826557 -0.1254397 88.48671323 -0.1148195 91.99609375 -0.09765625 C93.03265106 -0.10732422 94.06920837 -0.11699219 95.13717651 -0.12695312 C102.15692844 -0.05506119 105.62395504 1.06328137 110.70727539 6.00170898 C113.92630695 10.03895593 115.18253567 12.77421405 115.20991516 17.88700867 C115.22064812 19.26418816 115.22064812 19.26418816 115.2315979 20.66918945 C115.2342868 21.6744165 115.23697571 22.67964355 115.23974609 23.71533203 C115.24631729 24.77581253 115.25288849 25.83629303 115.25965881 26.9289093 C115.2794008 30.44536406 115.291057 33.96177607 115.30102539 37.47827148 C115.30510092 38.67911692 115.30917645 39.87996235 115.31337547 41.11719704 C115.3342409 47.47412571 115.34854012 53.83103276 115.35791016 60.18798828 C115.36897035 66.750739 115.40336489 73.31315027 115.44308186 79.87578106 C115.46924183 84.92447027 115.47760152 89.97307858 115.48119164 95.02182961 C115.48605982 97.44069522 115.49768031 99.85955716 115.51622963 102.27835655 C115.54060493 105.66777717 115.53965838 109.05631914 115.53271484 112.44580078 C115.55192993 113.93845963 115.55192993 113.93845963 115.5715332 115.46127319 C115.51971728 122.41764505 114.26306292 128.16243952 109.24633789 133.24389648 C108.67012695 133.60612305 108.09391602 133.96834961 107.50024414 134.34155273 C106.63206055 134.91196289 106.63206055 134.91196289 105.74633789 135.49389648 C102.62614064 137.18068525 100.04023716 137.5315875 96.56632996 137.54449463 C95.64531998 137.55020477 94.72431 137.55591492 93.77539062 137.5617981 C92.76702148 137.56291595 91.75865234 137.56403381 90.71972656 137.56518555 C89.12418694 137.5726329 89.12418694 137.5726329 87.49641418 137.58023071 C83.97034055 137.59486014 80.44431191 137.60165567 76.91821289 137.60717773 C74.47064716 137.61292855 72.02308145 137.61868629 69.57551575 137.62445068 C64.43999013 137.6349629 59.30448018 137.64080413 54.16894531 137.64428711 C47.58812397 137.64977223 41.0075095 137.67379994 34.42675304 137.70225906 C29.3695668 137.7208818 24.31243042 137.72609086 19.25521278 137.72762299 C16.82912375 137.73065086 14.40303563 137.73868388 11.97698021 137.75180817 C8.58247511 137.76886055 5.18847586 137.7669901 1.79394531 137.76049805 C0.79164886 137.76971283 -0.21064758 137.77892761 -1.24331665 137.78842163 C-7.45221666 137.75121943 -11.97320138 137.07676853 -16.76538086 132.75561523 C-17.46920898 131.9009668 -17.46920898 131.9009668 -18.18725586 131.02905273 C-18.90655273 130.18213867 -18.90655273 130.18213867 -19.64038086 129.31811523 C-23.38673072 123.78886393 -23.2283954 118.5886403 -23.21191406 112.12524414 C-23.21702499 111.09212601 -23.22213593 110.05900787 -23.22740173 108.99458313 C-23.2412945 105.58153479 -23.24034108 102.16868848 -23.23803711 98.75561523 C-23.24192438 96.38056361 -23.24625911 94.00551268 -23.25102234 91.63046265 C-23.25848401 86.65230048 -23.25819375 81.67420924 -23.25292969 76.69604492 C-23.24713707 70.32162181 -23.26406158 63.94748944 -23.28727436 57.5731144 C-23.30201817 52.66771756 -23.30288247 47.76239062 -23.29976463 42.85697556 C-23.30027758 40.50707804 -23.30551028 38.15717658 -23.31557655 35.80730057 C-23.32793498 32.51855932 -23.32115221 29.23038284 -23.30957031 25.94165039 C-23.31721405 24.97414352 -23.32485779 24.00663666 -23.33273315 23.0098114 C-23.27103252 15.06921033 -21.54158135 9.33804443 -15.93725586 3.40405273 C-11.11789951 -0.58985043 -5.94955892 -0.02578788 0 0 Z M-10.93725586 14.40405273 C-12.08925446 16.70804993 -12.07250484 18.03333203 -12.09115601 20.59712219 C-12.09975647 21.4761319 -12.10835693 22.3551416 -12.11721802 23.26078796 C-12.12147797 24.22756973 -12.12573792 25.1943515 -12.13012695 26.19042969 C-12.13830444 27.20681519 -12.14648193 28.22320068 -12.15490723 29.27038574 C-12.17978351 32.64436243 -12.19628222 36.01829702 -12.21069336 39.39233398 C-12.21601704 40.54267813 -12.22134071 41.69302227 -12.22682571 42.87822533 C-12.25356588 48.96584787 -12.2729388 55.05344984 -12.28735352 61.14111328 C-12.30401136 67.43635566 -12.3487968 73.73107555 -12.39972496 80.02612019 C-12.43334069 84.8602307 -12.44492473 89.69421628 -12.4505806 94.52843285 C-12.4573078 96.84931625 -12.47256768 99.17019102 -12.49647141 101.49096107 C-12.52800546 104.73757451 -12.52817699 107.98276652 -12.52075195 111.22949219 C-12.53715729 112.19020126 -12.55356262 113.15091034 -12.57046509 114.14073181 C-12.5271729 118.75942075 -12.45816812 120.74015148 -9.52578735 124.47746277 C-6.30505333 126.87458788 -4.78296265 127.52879888 -0.858078 127.54449463 C-0.00431076 127.55020477 0.84945648 127.55591492 1.72909546 127.5617981 C2.66782501 127.56291595 3.60655457 127.56403381 4.57373047 127.56518555 C5.56085526 127.57015045 6.54798004 127.57511536 7.5650177 127.58023071 C10.8416106 127.59487595 14.11815509 127.60165846 17.39477539 127.60717773 C19.66680402 127.61292748 21.93883262 127.61868523 24.21086121 127.62445068 C28.97993191 127.63496756 33.74898573 127.64080565 38.51806641 127.64428711 C44.63156377 127.64977162 50.74483838 127.67379599 56.85826588 127.70225906 C61.55340732 127.72087578 66.24849503 127.72609055 70.94367027 127.72762299 C73.19753931 127.73065249 75.45140734 127.73869101 77.70524025 127.75180817 C80.85819089 127.76884728 84.01059632 127.76699339 87.16357422 127.76049805 C88.09623108 127.76971283 89.02888794 127.77892761 89.98980713 127.78842163 C96.11348413 127.74886858 99.61423351 126.85256337 104.06274414 122.40405273 C104.97633676 119.64205666 105.19117477 117.1079943 105.20318604 114.2117157 C105.20889618 113.38333191 105.21460632 112.55494812 105.2204895 111.70146179 C105.22160736 110.8011171 105.22272522 109.9007724 105.22387695 108.97314453 C105.22884186 108.01820099 105.23380676 107.06325745 105.23892212 106.07937622 C105.25352531 102.92066731 105.26034264 99.76200861 105.26586914 96.60327148 C105.27162204 94.40615335 105.27737975 92.20903523 105.28314209 90.01191711 C105.29364678 85.40442674 105.29949296 80.79695379 105.30297852 76.18945312 C105.30846258 70.29143935 105.33249116 64.39365651 105.36095047 58.49571514 C105.37959244 53.95662263 105.38478328 49.41758558 105.38631439 44.87845802 C105.38933783 42.70439199 105.39735591 40.53032685 105.41049957 38.35629845 C105.42759262 35.31173603 105.42567172 32.26773573 105.41918945 29.22314453 C105.42840424 28.32887253 105.43761902 27.43460052 105.44711304 26.51322937 C105.41091661 21.07420845 104.79268805 17.16216645 102.06274414 12.40405273 C99.21990294 10.5874128 97.00890789 10.15142811 93.66712952 10.1366272 C92.3571122 10.12383224 92.3571122 10.12383224 91.02062988 10.11077881 C90.0703894 10.11168518 89.12014893 10.11259155 88.14111328 10.11352539 C87.1341893 10.10680817 86.12726532 10.10009094 85.08982849 10.09317017 C81.75913569 10.07416207 78.42864406 10.0702647 75.09790039 10.06811523 C72.78388892 10.06168988 70.46987828 10.05496171 68.15586853 10.04794312 C63.30457678 10.03596374 58.45335628 10.03226304 53.60205078 10.03344727 C47.38314607 10.03365063 41.16469746 10.00633315 34.94590092 9.97190285 C30.16668088 9.94967671 25.38757141 9.94560839 20.60830498 9.94666672 C18.31535709 9.94430489 16.02240642 9.93544879 13.72950935 9.92000198 C10.52393659 9.90042685 7.31935798 9.90614695 4.11376953 9.91821289 C3.16555328 9.90697388 2.21733704 9.89573486 1.24038696 9.88415527 C-4.07834777 9.93508034 -7.13446687 10.28607207 -10.93725586 14.40405273 Z " fill="#05487A" transform="translate(183.937255859375,-0.404052734375)"/>
<path d="M0 0 C0.95040161 -0.01004562 1.90080322 -0.02009125 2.88000488 -0.03044128 C4.4493428 -0.03918777 4.4493428 -0.03918777 6.05038452 -0.04811096 C7.69940765 -0.06278664 7.69940765 -0.06278664 9.38174438 -0.07775879 C13.03348573 -0.10776326 16.68519025 -0.12911423 20.33700562 -0.14796448 C21.58289837 -0.1545363 22.82879112 -0.16110813 24.1124382 -0.1678791 C29.35043681 -0.19377872 34.58842997 -0.21726673 39.82647133 -0.23237514 C47.32371692 -0.25425503 54.82024387 -0.29616114 62.31720221 -0.36581272 C68.22995855 -0.4188713 74.14255725 -0.43887076 80.05555344 -0.44757271 C82.56655826 -0.45613325 85.0775501 -0.47496581 87.58839798 -0.50431633 C91.10754367 -0.54323256 94.62482467 -0.54426392 98.14413452 -0.53639221 C99.69525436 -0.56639313 99.69525436 -0.56639313 101.27770996 -0.59700012 C108.31759634 -0.52645614 112.48461789 1.14729983 117.48544312 6.16062927 C120.67856811 10.48679862 121.6033519 14.3433706 121.63261414 19.64994812 C121.64334709 20.99132591 121.64334709 20.99132591 121.65429688 22.35980225 C121.65698578 23.33338181 121.65967468 24.30696136 121.66244507 25.31004333 C121.66901627 26.34140915 121.67558746 27.37277496 121.68235779 28.43539429 C121.70207056 31.84901504 121.71374866 35.26259184 121.72372437 38.67625427 C121.72779989 39.84308495 121.73187542 41.00991562 121.73607445 42.2121048 C121.7569261 48.38749006 121.77123202 54.56285315 121.78060913 60.73826599 C121.79167438 67.11154282 121.82607867 73.48447061 121.86578083 79.85762405 C121.89194231 84.76305281 121.90030056 89.6683983 121.90389061 94.57389069 C121.90875736 96.92297982 121.92037381 99.27206522 121.9389286 101.62108612 C121.96331019 104.91221699 121.96235642 108.2024433 121.95541382 111.49363708 C121.97462891 112.94186104 121.97462891 112.94186104 121.99423218 114.41934204 C121.9400347 121.48714109 120.40119285 126.85611291 115.66903687 132.21922302 C115.09282593 132.67426208 114.51661499 133.12930115 113.92294312 133.59812927 C113.34415405 134.07121521 112.76536499 134.54430115 112.16903687 135.03172302 C109.15922505 137.0499031 106.5160762 137.2889847 103.00248718 137.30780029 C101.62530769 137.31853325 101.62530769 137.31853325 100.2203064 137.32948303 C98.71246582 137.33351639 98.71246582 137.33351639 97.17416382 137.33763123 C96.11368332 137.34420242 95.05320282 137.35077362 93.96058655 137.35754395 C90.44413179 137.37728594 86.92771978 137.38894213 83.41122437 137.39891052 C82.21037893 137.40298605 81.0095335 137.40706158 79.77229881 137.4112606 C73.41537014 137.43212603 67.05846309 137.44642525 60.70150757 137.45579529 C54.13875685 137.46685548 47.57634558 137.50125002 41.01371479 137.54096699 C35.96502558 137.56712697 30.91641727 137.57548665 25.86766624 137.57907677 C23.44880063 137.58394495 21.02993869 137.59556544 18.6111393 137.61411476 C15.22171868 137.63849006 11.83317671 137.63754351 8.44369507 137.63059998 C7.44858917 137.64341003 6.45348328 137.65622009 5.42822266 137.66941833 C-1.5281492 137.61760241 -7.27294367 136.36094805 -12.35440063 131.34422302 C-12.7166272 130.76801208 -13.07885376 130.19180115 -13.45205688 129.59812927 C-13.83233032 129.01934021 -14.21260376 128.44055115 -14.60440063 127.84422302 C-16.28876249 124.72851505 -16.64318033 122.14012026 -16.66172791 118.67094421 C-16.66888321 117.75137939 -16.67603851 116.83181458 -16.68341064 115.88438416 C-16.68609955 114.87758606 -16.68878845 113.87078796 -16.69155884 112.83348083 C-16.69813004 111.77139404 -16.70470123 110.70930725 -16.71147156 109.61503601 C-16.73121185 106.09377474 -16.74286873 102.57255613 -16.75283813 99.05125427 C-16.75691366 97.84916069 -16.76098919 96.64706711 -16.76518822 95.40854645 C-16.78605189 89.04628674 -16.80035245 82.68404861 -16.8097229 76.32176208 C-16.82078896 69.74994521 -16.85519076 63.17846677 -16.8948946 56.60676956 C-16.92103769 51.55383168 -16.92941271 46.50097473 -16.93300438 41.44797516 C-16.93787613 39.02549198 -16.94950674 36.60301256 -16.96804237 34.1805954 C-16.99238411 30.7885759 -16.99147739 27.3974359 -16.98452759 24.00535583 C-16.99733765 23.00665466 -17.01014771 22.00795349 -17.02334595 20.97898865 C-16.9716019 14.04250986 -15.74522363 9.60770432 -10.88174438 4.41844177 C-6.94566755 1.43032062 -4.90314185 0.04066683 0 0 Z M-4.51455688 13.16062927 C-7.03590409 18.18240051 -6.7981561 23.3575631 -6.77334595 28.85032654 C-6.77685059 29.80877472 -6.78035522 30.7672229 -6.78396606 31.75471497 C-6.79274453 34.91222955 -6.78694836 38.06951879 -6.78018188 41.22703552 C-6.78152954 43.42608686 -6.78347091 45.62513791 -6.78598022 47.82418823 C-6.78892613 52.42814476 -6.78465052 57.03202358 -6.77529907 61.63597107 C-6.7638982 67.5363282 -6.77047148 73.4365035 -6.782444 79.33685398 C-6.78967123 83.87586843 -6.7873708 88.41483977 -6.78218842 92.95385551 C-6.78085466 95.12956196 -6.78249004 97.30527233 -6.78714752 99.4809742 C-6.79222758 102.52086382 -6.78448181 105.56045885 -6.77334595 108.60032654 C-6.77739441 109.498647 -6.78144287 110.39696747 -6.78561401 111.32250977 C-6.7502544 116.53401217 -6.51731056 120.72249436 -3.07705688 124.91062927 C-0.32518297 127.11212841 2.29533106 127.28830742 5.67814636 127.30780029 C6.53184311 127.3149556 7.38553986 127.3221109 8.2651062 127.32948303 C9.66545105 127.33351639 9.66545105 127.33351639 11.09408569 127.33763123 C12.07975021 127.34420242 13.06541473 127.35077362 14.08094788 127.35754395 C17.34729079 127.37727709 20.61358775 127.38893897 23.87997437 127.39891052 C24.9950556 127.40298605 26.11013683 127.40706158 27.25900841 127.4112606 C33.15976146 127.43212035 39.06049125 127.4464231 44.96127319 127.45579529 C51.0578951 127.46686584 57.15415264 127.5012738 63.25064564 127.54096699 C67.93724755 127.56710067 72.62376216 127.5754842 77.31043053 127.57907677 C79.55790356 127.58395027 81.80537249 127.59558589 84.05277443 127.61411476 C87.19835 127.6384388 90.3429763 127.63755331 93.48861694 127.63059998 C94.41610748 127.64341003 95.34359802 127.65622009 96.29919434 127.66941833 C101.9872334 127.6236068 105.12960976 126.90522762 109.48544312 123.16062927 C110.63835404 120.85480743 110.61829936 119.53330485 110.63261414 116.96755981 C110.63976944 116.08855011 110.64692474 115.20954041 110.65429688 114.30389404 C110.65698578 113.33711227 110.65967468 112.37033051 110.66244507 111.37425232 C110.66901627 110.35786682 110.67558746 109.34148132 110.68235779 108.29429626 C110.70211906 104.92031283 110.71375925 101.54637395 110.72372437 98.17234802 C110.72779989 97.02200388 110.73187542 95.87165974 110.73607445 94.68645668 C110.75694652 88.59882918 110.77124375 82.5112243 110.78060913 76.42356873 C110.79168036 70.1284072 110.8260856 63.8335985 110.86578083 57.53856182 C110.89189618 52.70445081 110.90029643 47.87042452 110.90389061 43.03624916 C110.90876913 40.71538216 110.92041886 38.39451925 110.9389286 36.07372093 C110.96321298 32.82725751 110.96237436 29.58171579 110.95541382 26.33518982 C110.96822388 25.37448074 110.98103394 24.41377167 110.99423218 23.4239502 C110.9606904 19.13707292 110.88182842 16.80034347 108.58106995 13.08721924 C105.68504624 10.42479379 104.15786762 10.03519621 100.33033752 10.02018738 C99.45974197 10.01447723 98.58914642 10.00876709 97.69216919 10.00288391 C96.73473816 10.00176605 95.77730713 10.00064819 94.79086304 9.99949646 C93.28091515 9.9920491 93.28091515 9.9920491 91.74046326 9.98445129 C88.39893926 9.96980538 85.05746274 9.96302345 81.71591187 9.95750427 C79.39904275 9.9517546 77.08217365 9.94599685 74.76530457 9.94023132 C69.902077 9.92971427 65.038866 9.92387628 60.17562866 9.9203949 C53.94106488 9.91491021 47.70671951 9.89088551 41.47222424 9.86242294 C36.68443663 9.84380741 31.89670173 9.83859152 27.108881 9.83705902 C24.81035481 9.83402927 22.51182962 9.82598995 20.21333885 9.81287384 C16.99812548 9.79583714 13.78344687 9.79768804 10.56820679 9.80418396 C9.61684845 9.79496918 8.66549011 9.78575439 7.68530273 9.77626038 C1.03561377 9.77578729 1.03561377 9.77578729 -4.51455688 13.16062927 Z " fill="#05487A" transform="translate(17.514556884765625,-0.1606292724609375)"/>
</svg>
